<svg width="16" height="16" viewBox="0 0 16 16" fill="none" xmlns="http://www.w3.org/2000/svg">
<path d="M5.78125 9.55323C5.78125 10.4132 6.44125 11.1066 7.26125 11.1066H8.93458C9.64792 11.1066 10.2279 10.4999 10.2279 9.75323C10.2279 8.9399 9.87458 8.65323 9.34792 8.46657L6.66125 7.53323C6.13458 7.34657 5.78125 7.0599 5.78125 6.24657C5.78125 5.4999 6.36125 4.89323 7.07458 4.89323H8.74792C9.56792 4.89323 10.2279 5.58657 10.2279 6.44657" stroke="#9F9FB5" stroke-width="1.5" stroke-linecap="round" stroke-linejoin="round"/>
<path d="M8 4V12" stroke="#9F9FB5" stroke-width="1.5" stroke-linecap="round" stroke-linejoin="round"/>
<path d="M8 14.6667C11.6819 14.6667 14.6667 11.6819 14.6667 7.99999C14.6667 4.3181 11.6819 1.33333 8 1.33333C4.3181 1.33333 1.33333 4.3181 1.33333 7.99999C1.33333 11.6819 4.3181 14.6667 8 14.6667Z" stroke="#9F9FB5" stroke-width="1.5" stroke-linecap="round" stroke-linejoin="round"/>
</svg>
