<svg width="16" height="16" viewBox="0 0 16 16" fill="none" xmlns="http://www.w3.org/2000/svg">
<path d="M1.38 3.06667C1.91333 0.760003 5.38667 0.760003 5.91333 3.06667C6.22667 4.42 5.36667 5.56667 4.62 6.28C4.07333 6.8 3.21333 6.79334 2.66667 6.28C1.92667 5.56667 1.06667 4.42 1.38 3.06667Z" stroke="#9F9FB5" stroke-width="1.5"/>
<path d="M10.0467 11.0667C10.58 8.76 14.0733 8.76 14.6067 11.0667C14.92 12.42 14.06 13.5667 13.3067 14.28C12.76 14.8 11.8933 14.7933 11.3467 14.28C10.5933 13.5667 9.73333 12.42 10.0467 11.0667Z" stroke="#9F9FB5" stroke-width="1.5"/>
<path d="M8 3.33333H9.78667C11.02 3.33333 11.5933 4.85999 10.6667 5.67333L5.34 10.3333C4.41334 11.14 4.98667 12.6667 6.21334 12.6667H8" stroke="#9F9FB5" stroke-width="1.5" stroke-linecap="round" stroke-linejoin="round"/>
<path d="M3.65748 3.66666H3.66518" stroke="#9F9FB5" stroke-width="2" stroke-linecap="round" stroke-linejoin="round"/>
<path d="M12.3241 11.6667H12.3319" stroke="#9F9FB5" stroke-width="2" stroke-linecap="round" stroke-linejoin="round"/>
</svg>
